<?xml version="1.0" standalone="no"?>
<!DOCTYPE svg PUBLIC "-//W3C//DTD SVG 20010904//EN"
 "http://www.w3.org/TR/2001/REC-SVG-20010904/DTD/svg10.dtd">
<svg version="1.0" xmlns="http://www.w3.org/2000/svg"
 width="261.000000pt" height="261.000000pt" viewBox="0 0 261.000000 261.000000"
 preserveAspectRatio="xMidYMid meet">
<metadata>
Created by potrace 1.14, written by Peter Selinger 2001-2017
</metadata>
<g transform="translate(0.000000,261.000000) scale(0.100000,-0.100000)"
fill="#000000" stroke="none">
<path d="M1150 2601 c-9 -7 -14 -30 -15 -72 -2 -57 -4 -64 -26 -70 -37 -10
-139 -28 -194 -34 -76 -9 -78 -10 -108 -76 -42 -91 -57 -163 -57 -267 0 -80
-4 -104 -29 -167 -53 -131 -60 -251 -22 -360 55 -157 222 -268 427 -284 6 -1
9 -28 9 -72 -2 -72 9 -99 40 -99 27 0 34 39 34 198 0 131 -3 165 -15 177 -34
34 -56 10 -58 -66 -3 -73 -1 -72 -88 -52 -80 18 -140 48 -198 100 -58 52 -77
86 -95 170 -19 91 -11 151 37 272 26 64 30 85 29 169 -1 100 7 144 41 228 l21
51 138 23 c162 26 262 24 408 -10 93 -21 95 -21 114 -2 19 20 19 20 -2 41 -11
12 -30 21 -40 21 -17 0 -19 8 -19 69 0 74 -5 91 -27 91 -29 0 -45 -31 -45 -86
l0 -55 -32 6 c-18 3 -62 8 -98 11 -36 4 -67 8 -69 10 -2 2 -4 31 -3 64 0 49
-4 62 -18 70 -22 12 -21 12 -40 1z"/>
<path d="M1649 2151 c-13 -10 -46 -21 -74 -24 -27 -4 -77 -21 -110 -38 -195
-103 -178 -97 -278 -93 -51 2 -102 5 -114 8 -16 3 -26 -1 -33 -14 -15 -28 -2
-49 33 -55 18 -3 43 -7 57 -9 14 -3 51 -5 82 -5 53 -1 60 -4 90 -38 64 -72 77
-83 92 -77 32 12 29 44 -9 92 -25 32 -32 48 -23 51 7 2 42 22 76 44 68 42 123
66 158 67 17 0 24 -8 30 -37 14 -67 15 -77 15 -138 1 -72 17 -101 61 -110 18
-4 42 -14 53 -21 30 -21 73 -16 143 15 91 41 116 61 108 89 -10 31 -35 28
-116 -13 -93 -47 -113 -44 -25 3 75 41 94 71 57 91 -15 8 -33 3 -86 -25 -36
-19 -66 -33 -66 -30 0 2 22 17 49 32 59 32 70 52 41 76 -21 17 -24 16 -74 -12
-52 -30 -76 -37 -76 -22 0 4 21 15 46 26 55 23 79 61 50 82 -16 11 -24 10 -57
-6 -51 -26 -59 -25 -59 9 0 22 6 30 25 35 25 6 30 20 19 50 -8 22 -56 20 -85
-3z"/>
<path d="M1420 1491 c-6 -11 -10 -87 -10 -176 0 -152 7 -195 33 -195 31 1 40
19 41 82 l1 63 40 -3 c137 -9 292 -118 329 -230 18 -53 23 -159 11 -212 -4
-19 -23 -69 -41 -111 -33 -74 -33 -79 -31 -200 2 -116 0 -128 -24 -180 -30
-62 -37 -69 -80 -75 -61 -8 -86 -12 -152 -24 -65 -12 -220 -9 -277 4 -160 37
-171 38 -186 19 -16 -24 -7 -41 30 -57 30 -13 31 -14 30 -75 -1 -75 18 -105
54 -82 15 9 20 29 21 90 1 40 3 43 24 37 12 -3 57 -9 100 -12 l77 -7 0 -56 c0
-63 6 -75 37 -85 26 -8 36 16 35 90 l0 51 87 16 c48 9 115 20 150 23 l62 7 40
82 c45 95 58 169 45 265 -8 61 -7 69 23 138 69 157 74 291 15 417 -37 80 -124
160 -216 198 -49 20 -185 50 -196 43 -6 -3 -9 26 -8 71 1 77 -9 103 -39 103
-8 0 -19 -9 -25 -19z"/>
<path d="M735 847 c-85 -37 -125 -65 -125 -86 0 -37 41 -36 118 3 94 48 117
46 27 -2 -76 -40 -95 -71 -56 -91 16 -9 27 -7 53 9 18 11 38 20 43 20 6 -1 -2
-7 -16 -15 -35 -19 -43 -51 -17 -69 19 -13 26 -12 74 16 30 16 59 28 66 26 7
-3 -3 -12 -22 -22 -61 -29 -83 -51 -76 -74 10 -30 34 -35 66 -12 41 29 60 26
60 -9 0 -23 -5 -30 -22 -33 -18 -2 -23 -10 -23 -33 0 -26 4 -30 29 -33 17 -2
39 4 55 16 15 11 49 22 76 25 48 6 95 27 220 97 57 33 64 34 155 33 52 -1 104
-3 115 -6 24 -5 55 9 55 26 -1 37 -21 44 -140 53 -109 7 -112 9 -150 60 -38
50 -68 68 -87 52 -21 -17 -15 -40 21 -87 l34 -45 -93 -53 c-50 -29 -110 -55
-131 -59 l-40 -6 -14 54 c-7 29 -13 82 -13 118 1 77 -13 105 -59 115 -18 4
-42 14 -53 21 -28 20 -72 17 -130 -9z m105 -131 c0 -2 -7 -7 -16 -10 -8 -3
-12 -2 -9 4 6 10 25 14 25 6z"/>
</g>
</svg>
